PathFileType	4	(X/Y/Z)	C:/Users/beibeiliu/ov580/test_trc/User2\sequence.16_training_dense_right.trc
DataRate	CameraRate	NumFrames	NumMarkers	Units	OrigDataRate	OrigDataStartFrame	OrigNumFrames
120	120	18	19	mm	120	1	411
Frame#	Time	ThumbCMC			ThumbMCP			ThumbIP			ThumbTip			IndexMCP			IndexPIP			IndexTip			MiddleMCP			MiddlePIP			MiddleTip			RingMCP			RingPIP			RingTip			PinkyMCP			PinkyPIP			PinkyTip			BackHand1			BackHand2			BackHand3	
		X0	Y0	Z0	X1	Y1	Z1	X2	Y2	Z2	X3	Y3	Z3	X4	Y4	Z4	X5	Y5	Z5	X6	Y6	Z6	X7	Y7	Z7	X8	Y8	Z8	X9	Y9	Z9	X10	Y10	Z10	X11	Y11	Z11	X12	Y12	Z12	X13	Y13	Z13	X14	Y14	Z14	X15	Y15	Z15	X16	Y16	Z16	X17	Y17	Z17	X18	Y18	Z18	
0	0	119.741	41.8425	37.3171	118.002	61.8472	9.30365	105.669	75.5034	-20.4745	97.0316	87.3491	-38.7715	70.7375	13.7392	-27.0869	50.8334	10.6827	-50.892	36.6156	9.09316	-70.8192	37.9965	9.92557	-10.8788	15.2135	37.7485	-0.836157	36.6676	50.2147	32.4913	25.8857	7.08604	9.73582	15.5373	33.0133	25.2673	46.7209	36.5092	46.1965	24.0382	-1.48177	28.5791	17.416	28.1384	43.1012	45.1528	32.0329	58.4424	81.5244	-18.4307	32.6769	108.761	-18.8733	57.3433	113.956	6.26195	29.1214	
1	0.00833333	119.416	39.1009	30.1842	118.555	55.3622	9.53126	108.246	69.3119	-24.2554	104.482	84.5748	-41.7515	69.3484	11.9781	-28.1302	52.2712	9.52536	-53.4494	31.5021	4.69683	-72.4624	39.9238	12.0189	-13.3518	16.8344	41.9863	-0.422609	40.0096	51.8906	30.4262	24.5642	10.952	6.81455	12.8449	31.3436	24.9408	47.3741	37.991	42.7711	23.8011	0.29788	28.0638	18.2979	31.1578	41.8433	49.3705	31.3866	52.4194	78.7741	-18.7363	32.8643	104.957	-19.8841	57.5942	111.476	2.91983	25.1192	
2	0.0166667	123.702	37.086	32.3923	118.458	51.0953	5.58326	111.944	65.8137	-26.6868	104.898	77.2287	-44.9641	68.8694	8.46426	-29.3179	54.8995	7.83956	-52.2062	33.5347	1.93964	-71.0565	35.4123	12.3393	-15.9393	17.4685	40.8011	-3.17964	41.9755	50.5487	28.5035	23.6367	7.61461	7.69617	15.1394	32.7302	19.8712	46.1775	36.7333	40.8808	21.8458	0.204997	25.6389	17.2938	29.0463	39.3505	45.698	32.4199	50.9854	76.393	-21.3386	32.2603	100.588	-24.6699	56.5879	110.852	-1.75528	26.4807	
3	0.025	123.219	35.0149	28.4704	122.351	50.2594	5.37176	111.741	62.2302	-28.8616	106.657	75.9433	-48.0496	72.3276	6.95918	-30.4803	53.3341	3.78555	-56.5179	33.7274	-2.63538	-73.1628	36.062	4.8599	-14.6361	16.0426	35.0797	-1.89158	39.6992	45.2148	27.2239	23.9107	5.04882	3.95524	15.7687	31.4504	20.9266	46.808	34.4481	38.1902	23.5746	-4.30434	24.5728	16.7553	24.5333	35.6054	48.7691	28.0771	51.1751	79.9611	-23.4931	29.3283	102.963	-24.0949	58.2839	111.018	-1.02022	21.6404	
4	0.0333333	123.076	34.3824	26.4567	119.971	49.021	4.91625	111.449	62.0779	-27.9253	103.069	74.3808	-48.4852	72.0212	1.19678	-33.774	58.9078	-0.116577	-56.0532	37.46	-7.31761	-74.2903	43.5859	0.550727	-17.9553	17.777	28.8375	-4.84528	37.836	41.8067	23.5411	30.4388	-3.95151	3.53949	17.3996	25.0859	16.9008	46.9961	29.8898	37.9342	26.6752	-13.1969	25.0133	18.8615	20.4959	35.2524	48.4276	21.4931	49.6825	84.3988	-26.3599	31.4073	105.501	-29.2637	58.1164	112.444	-5.55238	26.7799	
5	0.0416667	119.445	34.1208	26.5204	114.604	47.9623	5.96187	106.652	62.0382	-22.4579	97.7555	73.2255	-44.1753	76.3283	0.342779	-35.0193	58.7215	-8.08118	-57.0178	43.2699	-10.2139	-82.2934	44.6509	-7.82281	-17.936	16.13	15.6264	-7.41401	34.9519	33.4571	21.6316	30.5578	-10.1954	0.0935507	14.1131	11.6139	15.4221	42.3107	23.6491	33.8276	26.2573	-20.8056	22.3425	17.8211	8.18834	30.927	48.4797	15.1085	50.8704	84.0738	-32.9317	30.6307	107.732	-28.8557	54.3913	112.11	-6.87663	23.2796	
6	0.05	114.37	33.2442	29.6283	112.054	50.5245	6.59684	101.045	63.4136	-25.7697	90.5725	74.4472	-43.6588	77.7736	-3.89663	-35.1436	64.2005	-8.68821	-61.1744	46.4568	-19.513	-79.9148	47.7036	-13.1704	-21.5249	17.5149	6.03322	-9.93561	34.5219	23.1699	22.0625	31.8545	-22.9855	0.438087	14.4279	-1.03562	15.1402	39.8519	12.7819	36.383	34.1656	-31.2732	19.7827	17.8974	-3.71913	33.9866	47.7403	5.43769	49.9231	93.0273	-34.0137	29.3729	113.68	-27.8004	54.6154	114.6	-4.74573	23.0871	
7	0.0583333	110.049	36.1686	34.8258	102.328	51.1584	8.95638	88.95	62.5182	-21.348	76.7423	71.5651	-42.1749	79.9178	-4.47598	-36.7323	64.405	-14.5507	-61.5137	50.5226	-23.0887	-84.7208	47.9164	-21.8798	-21.2833	17.4023	-6.31388	-9.03458	35.1572	10.6703	25.66	35.2037	-33.3449	0.0541134	15.4993	-15.0316	16.1236	38.9541	3.64478	34.5175	40.3527	-43.1736	18.1531	19.1913	-19.3866	29.1548	43.7889	-3.85806	50.4706	96.7281	-36.7099	23.9533	118.681	-28.0821	55.3923	117.414	-0.824549	24.6641	
8	0.0666667	98.2661	33.0852	34.3668	88.8026	51.3818	13.5445	73.7067	60.3681	-14.0518	60.0797	70.4899	-33.9144	77.8371	-6.1654	-35.9428	67.6264	-13.4107	-61.1266	55.4196	-24.0765	-81.1515	51.4926	-28.3674	-21.2836	17.2927	-18.2308	-5.88122	28.6172	-1.59267	23.0624	44.3735	-40.5263	-2.64059	18.4675	-28.2281	12.3176	40.5677	-7.95795	37.8154	44.5545	-53.0149	16.4797	23.073	-30.602	29.5661	42.0716	-17.2335	50.7666	101.55	-39.8982	25.5681	119.369	-29.5996	53.4283	114.325	-0.350053	27.9606	
9	0.075	91.2197	37.1306	41.061	74.6264	50.8994	18.0039	58.5897	60.544	-8.55847	43.1806	68.0594	-29.0976	76.2443	-5.47404	-34.5002	66.4365	-8.10531	-58.1841	53.7604	-22.1553	-84.1407	50.7283	-28.4719	-24.6387	18.088	-27.4383	-6.07819	27.478	-10.0582	24.7083	48.3326	-46.3575	-3.74639	21.3854	-37.9158	11.3362	39.1936	-16.5034	36.611	50.3837	-60.7588	15.0944	26.0241	-42.457	29.857	44.3151	-22.1651	47.7327	103.671	-31.388	25.2476	120.183	-25.8503	51.3675	113.038	2.3878	29.1338	
10	0.0833333	80.8045	33.1595	43.2817	61.5204	49.7064	21.7589	41.2053	59.3386	-2.87464	24.7021	62.3934	-21.4495	72.0071	2.25686	-30.2935	60.9957	-4.79617	-60.3347	54.0833	-18.7737	-80.7307	52.1423	-30.6206	-23.343	20.984	-38.2107	-8.60105	29.6464	-20.1769	26.3745	48.7622	-50.6438	-5.36925	24.5624	-46.7104	12.3946	40.9924	-24.4719	37.265	56.3344	-63.8212	13.5236	31.2733	-49.8847	29.7047	50.3244	-27.305	49.3203	106.156	-26.7283	24.7161	123.714	-18.2201	52.3449	106.253	8.1863	31.5536	
11	0.0916667	71.7048	33.3189	53.2098	51.2677	40.1849	31.678	27.2986	50.8748	2.73466	9.05018	56.6828	-13.5966	64.3704	6.52886	-29.3354	56.855	-2.44277	-55.9117	48.3833	-12.9858	-81.0357	54.0627	-26.1738	-22.1632	22.2465	-42.0817	-7.02798	28.7222	-24.0598	27.6858	53.2832	-50.8344	-6.63573	29.9359	-53.6163	13.2589	45.4543	-28.1472	37.3817	58.7891	-60.7801	9.73659	36.1894	-53.9119	33.3542	54.2492	-33.2026	50.9008	105.71	-24.3679	19.9444	121.932	-12.5295	51.0259	98.1703	15.2175	30.293	
12	0.1	63.1564	32.9606	57.5839	41.3091	36.5438	38.1932	17.166	43.9362	16.4699	-1.71839	47.6269	-0.487791	58.9031	10.3108	-27.8848	52.0969	0.874989	-52.0834	43.6868	-5.45294	-74.3562	50.1123	-26.7442	-23.3077	26.6074	-46.9493	-3.31913	33.635	-31.0627	29.6176	55.8016	-49.3881	-7.56328	35.7987	-57.5325	16.1185	47.3147	-30.7512	37.7336	66.256	-62.6106	8.49312	42.7555	-57.745	30.9383	57.3359	-34.3585	48.6821	106.849	-14.5798	20.1699	120.261	-6.01263	51.0885	95.7636	21.159	36.2065	
13	0.108333	59.0286	26.5713	58.7836	33.082	32.3413	42.9248	9.69592	36.6443	20.6515	-11.0925	38.7718	7.73813	56.8513	10.2238	-21.8137	49.9747	3.90161	-49.3989	42.2251	-3.187	-77.6583	57.6512	-25.7844	-20.9235	32.0901	-49.356	-8.01876	38.6203	-33.9052	31.5001	61.7762	-50.1089	-8.81872	40.5174	-56.3051	9.78958	50.7385	-37.6076	37.1327	77.3395	-59.7483	6.2705	51.1877	-61.0717	30.6105	59.96	-38.1884	46.2516	106.907	-7.26602	23.6505	119.593	0.717544	50.491	90.4419	25.4709	39.2661	
14	0.116667	53.6521	25.7154	61.0512	26.8466	30.2399	48.1586	3.36861	31.3873	24.5136	-18.4838	32.0158	6.0785	52.6621	14.8764	-24.5068	47.5106	6.9887	-50.5913	41.0415	3.49718	-74.4282	55.6259	-21.2771	-21.988	39.0346	-50.2122	-10.7683	41.7712	-37.0216	29.2124	69.5399	-45.9982	-10.7781	49.0355	-59.0385	11.2035	57.9694	-34.143	36.3264	83.9163	-53.5704	3.08349	61.3665	-65.4705	25.6598	69.0226	-36.8337	46.5744	108.966	-3.12936	22.1782	118.269	9.78212	52.8459	85.0178	25.855	38.3311	
15	0.125	50.2386	24.7973	61.2196	25.6296	23.6085	47.4231	-0.52664	25.1463	26.3466	-19.4268	22.0516	10.445	51.5419	17.5856	-23.4618	45.215	12.2149	-50.8001	41.4096	9.71911	-75.2631	59.9942	-20.9583	-24.8474	42.6794	-49.0609	-11.0064	45.5728	-40.5156	25.4099	72.6128	-39.6282	-14.4388	61.6131	-61.4534	4.16474	65.1818	-37.2778	35.0205	92.0846	-48.9883	-0.900705	71.5359	-62.7431	21.5797	75.5205	-36.9249	43.4085	112.198	4.73514	22.0861	120.764	14.5769	50.5265	83.9044	28.9564	42.4817	
16	0.133333	53.0776	19.9144	60.4603	24.787	20.1149	44.8877	1.54948	18.0773	19.7059	-19.0682	14.7617	5.18668	54.3145	19.6325	-25.6731	48.1741	16.7012	-50.9862	49.6304	12.9273	-79.6459	67.6293	-13.8747	-27.2664	53.6444	-47.2233	-19.2979	58.4996	-43.5991	19.9815	84.0656	-31.7566	-16.8284	69.5099	-56.9939	0.923798	70.8499	-35.4547	31.2317	103.223	-41.6728	-4.16701	80.183	-57.6059	18.2972	83.4895	-33.4162	39.88	113.17	12.4493	22.3592	122.08	21.3608	54.3152	84.6383	30.5536	43.1772	
17	0.141667	51.7654	19.702	57.0387	28.7684	14.138	38.3401	2.25805	12.7213	19.9506	-14.7281	7.98146	3.82868	61.2017	21.027	-28.1242	57.1301	19.013	-53.9652	55.9917	16.729	-79.7539	76.9322	-14.3694	-31.5455	65.9133	-47.7809	-21.8844	62.629	-42.3174	15.9502	90.7762	-29.7028	-21.7999	81.5286	-55.6247	-2.33286	76.8101	-36.4368	25.1452	108.134	-37.854	-8.26851	90.4211	-55.5161	14.299	91.9685	-35.84	39.2215	117.38	17.2588	21.2202	123.028	26.2715	56.1709	82.5686	33.1392	42.3015	
